<svg width="32" height="32" viewBox="0 0 32 32" fill="none" xmlns="http://www.w3.org/2000/svg">
<rect x="4.66667" y="4.6665" width="22.6667" height="22.6667" rx="2" fill="#0F3357"/>
<path fill-rule="evenodd" clip-rule="evenodd" d="M20.0912 21.1865C22.8146 20.0278 24.6667 17.7482 24.6667 15.1255C24.6667 11.3294 20.7865 8.25195 16 8.25195C11.2135 8.25195 7.33333 11.3294 7.33333 15.1255C7.33333 18.5957 10.5758 21.4653 14.7889 21.9325L14.4495 24.1723L20.0912 21.1865Z" fill="#E9F2FB"/>
<path d="M9.7225 13.452H10.52V16.73H12.423V17.5H9.7225V13.452ZM13.2459 13.452H14.0434V17.5H13.2459V13.452ZM18.7127 17.665L15.6437 14.893L15.8802 15.025L15.8967 17.5H15.0882V13.2925H15.1212L18.1242 16.0535L17.9482 15.9765L17.9317 13.452H18.7347V17.665H18.7127ZM19.7772 13.452H22.5382V14.222H20.5747V15.0855H22.3127V15.8555H20.5747V16.73H22.6152V17.5H19.7772V13.452Z" fill="#0F3357"/>
</svg>
