<svg width="32" height="32" viewBox="0 0 32 32" fill="none" xmlns="http://www.w3.org/2000/svg">
<g clip-path="url(#clip0_199_2383)">
<rect x="4.66667" y="4.6665" width="22.6667" height="22.6667" rx="2" fill="#0F3357"/>
<path d="M15.964 27.5V19.31H14.04V16.086H15.964V12.134C15.964 10.6433 16.3887 9.43 17.238 8.494C18.1047 7.54067 19.3527 7.064 20.982 7.064C21.4673 7.064 22.0047 7.142 22.594 7.298C23.2007 7.43667 23.7293 7.67067 24.18 8L22.646 10.626C22.4727 10.4007 22.2647 10.2533 22.022 10.184C21.7967 10.0973 21.58 10.054 21.372 10.054C20.852 10.054 20.4273 10.2273 20.098 10.574C19.7687 10.9207 19.604 11.4753 19.604 12.238V16.086H23.036V19.31H19.604V27.5H15.964Z" fill="#E9F2FB"/>
</g>
<defs>
<clipPath id="clip0_199_2383">
<rect width="32" height="32" fill="white"/>
</clipPath>
</defs>
</svg>
