<svg width="233" height="28" viewBox="0 0 233 28" fill="none" xmlns="http://www.w3.org/2000/svg">
<g clip-path="url(#clip0_416_163)">
<path d="M2.248 4.216H22.6V9.592H19.528V6.88H5.176V9.592H2.248V4.216ZM16.072 9.016L19.6 9.232C18.136 19.312 13.744 22.816 3.592 24.232C3.328 23.464 2.416 22.048 1.816 21.304C11.464 20.44 15.304 17.68 16.072 9.016ZM1.792 11.176H23.032V13.912H1.792V11.176ZM9.952 2.104L13.216 1.36C13.744 2.44 14.392 3.88 14.68 4.768L11.272 5.632C11.032 4.744 10.456 3.232 9.952 2.104ZM4.528 16.936L6.424 14.8C11.704 16.36 19.12 19.288 22.936 21.664L20.824 24.184C17.344 21.856 10.072 18.688 4.528 16.936ZM4.528 16.936C6.304 14.488 8.44 10.648 9.544 7.48L12.904 8.08C11.704 11.296 9.664 14.944 8.176 17.176L4.528 16.936ZM33.856 8.488H36.856V19.672C36.856 20.824 37.048 20.992 38.224 20.992C38.776 20.992 41.008 20.992 41.656 20.992C42.88 20.992 43.072 20.248 43.24 16.48C43.912 16.984 45.184 17.488 45.952 17.704C45.64 22.264 44.848 23.68 41.872 23.68C41.2 23.68 38.488 23.68 37.864 23.68C34.72 23.68 33.856 22.744 33.856 19.672V8.488ZM29.512 9.904L32.32 10.432C31.984 13.576 31.408 17.752 30.592 20.488L27.64 19.288C28.504 16.744 29.2 13.12 29.512 9.904ZM44.464 10.216L47.152 9.136C48.52 11.992 49.768 15.616 50.272 18.112L47.368 19.312C46.96 16.864 45.736 13.048 44.464 10.216ZM34.672 3.952L36.64 1.984C38.824 3.376 41.872 5.488 43.336 6.976L41.2 9.232C39.88 7.744 36.928 5.464 34.672 3.952ZM66.544 4.528H76.048V7.144H66.544V4.528ZM66.376 1.6L69.16 2.128C68.32 5.536 66.808 8.68 64.96 10.672C64.48 10.192 63.328 9.304 62.68 8.944C64.456 7.24 65.752 4.48 66.376 1.6ZM71.8 10.312C72.4 15.016 73.624 19.312 76.408 21.328C75.736 21.856 74.872 22.96 74.44 23.704C71.296 21.16 70.024 16.36 69.328 10.624L71.8 10.312ZM74.2 11.632L76.216 13.432C74.944 14.68 73.36 16.024 72.16 16.912L70.48 15.28C71.632 14.392 73.264 12.832 74.2 11.632ZM65.416 23.992L65.128 21.496L66.04 20.608L70.792 18.736C70.792 19.528 70.936 20.728 71.104 21.328C66.712 23.2 65.896 23.56 65.416 23.992ZM57.256 2.344L59.752 1.576C60.256 2.56 60.76 3.904 60.976 4.792L58.384 5.68C58.216 4.768 57.736 3.4 57.256 2.344ZM54.184 5.368H63.664V8.032H54.184V5.368ZM58.12 10.36H61.96V12.976H58.12V10.36ZM60.784 10.36H63.352C63.352 10.36 63.352 11.128 63.328 11.464C63.136 19.144 62.944 21.952 62.32 22.84C61.864 23.488 61.408 23.728 60.736 23.848C60.16 23.944 59.296 23.968 58.36 23.92C58.312 23.2 58.048 22.12 57.664 21.472C58.408 21.52 59.032 21.544 59.392 21.544C59.704 21.544 59.872 21.472 60.064 21.184C60.448 20.632 60.64 18.112 60.784 10.864V10.36ZM56.44 6.808H59.032V11.344C59.032 15.28 58.576 20.104 55.672 24.16C55.192 23.656 54.256 22.984 53.584 22.552C56.128 18.808 56.44 14.584 56.44 11.296V6.808ZM73.528 7.432L75.736 9.448C72.928 10.648 69.16 11.56 65.896 12.184C65.752 11.584 65.368 10.624 65.056 10.048C68.128 9.448 71.512 8.44 73.528 7.432ZM65.416 23.992C65.176 23.392 64.408 22.36 63.976 21.952C64.456 21.52 65.056 20.704 65.056 19.432V10.048H67.816V20.968C67.816 20.968 65.416 22.96 65.416 23.992ZM86.512 4.744H94.576V7.096H86.512V4.744ZM89.68 8.944H92.944V11.272H89.68V8.944ZM92.08 8.944H94.504C94.504 8.944 94.48 9.616 94.48 9.928C94.288 16.336 94.072 18.712 93.496 19.504C93.088 20.08 92.656 20.272 92.08 20.392C91.576 20.464 90.832 20.488 90.016 20.464C89.968 19.768 89.728 18.784 89.392 18.16C89.992 18.232 90.472 18.232 90.784 18.232C91.048 18.232 91.216 18.16 91.384 17.92C91.744 17.44 91.912 15.352 92.08 9.376V8.944ZM95.728 4.048H102.808V6.4H95.728V4.048ZM94.864 12.52H102.76V14.776H94.864V12.52ZM95.536 7.816H100.792V9.904H95.536V7.816ZM96.52 1.504L98.896 2.152C98.176 4.528 96.976 7.12 95.824 8.752C95.392 8.32 94.432 7.552 93.856 7.192C94.96 5.752 95.944 3.568 96.52 1.504ZM97.552 11.152H99.976V17.704C99.976 18.832 99.832 19.504 99.04 19.888C98.296 20.272 97.288 20.32 95.944 20.32C95.872 19.624 95.488 18.616 95.152 17.944C96.016 17.968 96.928 17.968 97.192 17.968C97.48 17.968 97.552 17.896 97.552 17.68V11.152ZM100.072 7.816H100.672L101.128 7.672L102.64 8.848C101.608 10.168 100.168 11.656 98.872 12.64C98.584 12.16 97.936 11.488 97.552 11.152C98.512 10.384 99.592 9.112 100.072 8.248V7.816ZM88.36 5.824H90.64V9.184C90.64 12.256 90.328 16.84 87.88 19.912C87.496 19.408 86.68 18.64 86.152 18.304C88.144 15.616 88.36 11.728 88.36 9.136V5.824ZM88.96 2.032L91.456 1.6C91.84 2.584 92.272 3.856 92.44 4.696L89.872 5.248C89.704 4.384 89.32 3.04 88.96 2.032ZM81.112 2.848L83.32 1.672C84.304 2.8 85.48 4.336 86.056 5.32L83.752 6.76C83.224 5.728 82.072 4.048 81.112 2.848ZM80.608 7.216H85.672V9.52H80.608V7.216ZM85.48 17.656C86.752 20.896 89.584 21.28 93.928 21.304C96.496 21.304 100.456 21.16 103.192 20.896C102.784 21.472 102.424 22.768 102.28 23.536C99.76 23.704 96.688 23.752 93.88 23.752C88.312 23.752 85.336 23.032 83.56 18.424L85.48 17.656ZM84.328 13.048H85.192L85.624 13L86.824 13.48C86.152 18.712 84.424 22.336 81.928 24.232C81.544 23.68 80.608 22.696 80.056 22.312C82.36 20.704 83.8 17.656 84.328 13.48V13.048ZM81.16 15.664V13.6L82.192 13.048H85.744L85.72 15.28H82.648C82.072 15.28 81.376 15.448 81.16 15.664ZM81.16 15.664C81.016 15.04 80.512 13.816 80.224 13.288C80.632 13.192 81.016 13 81.448 12.544C82.12 11.848 84.112 8.776 84.856 7.456V7.36L85.576 7.072L87.376 7.816C86.32 9.448 84.4 12.52 83.104 14.056C83.104 14.056 81.16 15.016 81.16 15.664Z" fill="#2680D9"/>
<path d="M125.945 7.744C125.353 7.44 124.705 7.176 124.001 6.952C123.297 6.728 122.609 6.616 121.937 6.616C121.009 6.616 120.265 6.832 119.705 7.264C119.161 7.696 118.889 8.272 118.889 8.992C118.889 9.536 119.065 10 119.417 10.384C119.769 10.752 120.233 11.072 120.809 11.344C121.385 11.616 121.985 11.872 122.609 12.112C123.153 12.32 123.689 12.552 124.217 12.808C124.745 13.064 125.217 13.384 125.633 13.768C126.065 14.152 126.401 14.624 126.641 15.184C126.897 15.744 127.025 16.44 127.025 17.272C127.025 18.184 126.793 19.016 126.329 19.768C125.881 20.52 125.233 21.112 124.385 21.544C123.537 21.976 122.529 22.192 121.361 22.192C120.593 22.192 119.857 22.104 119.153 21.928C118.465 21.752 117.825 21.528 117.233 21.256C116.641 20.968 116.113 20.672 115.649 20.368L116.681 18.544C117.065 18.816 117.505 19.08 118.001 19.336C118.497 19.576 119.017 19.776 119.561 19.936C120.105 20.08 120.633 20.152 121.145 20.152C121.689 20.152 122.225 20.056 122.753 19.864C123.297 19.656 123.745 19.344 124.097 18.928C124.449 18.512 124.625 17.96 124.625 17.272C124.625 16.68 124.465 16.192 124.145 15.808C123.841 15.408 123.433 15.072 122.921 14.8C122.409 14.512 121.865 14.256 121.289 14.032C120.745 13.824 120.193 13.6 119.633 13.36C119.073 13.104 118.553 12.8 118.073 12.448C117.593 12.08 117.209 11.632 116.921 11.104C116.633 10.576 116.489 9.936 116.489 9.184C116.489 8.272 116.705 7.48 117.137 6.808C117.585 6.12 118.193 5.584 118.961 5.2C119.729 4.8 120.609 4.584 121.601 4.552C122.721 4.552 123.705 4.688 124.553 4.96C125.417 5.232 126.177 5.568 126.833 5.968L125.945 7.744ZM134.513 22.24C133.585 22.24 132.737 22.04 131.969 21.64C131.217 21.24 130.617 20.656 130.169 19.888C129.737 19.104 129.521 18.152 129.521 17.032C129.521 15.928 129.753 14.976 130.217 14.176C130.681 13.36 131.297 12.736 132.065 12.304C132.849 11.872 133.705 11.656 134.633 11.656C135.561 11.656 136.345 11.872 136.985 12.304C137.625 12.72 138.113 13.216 138.449 13.792L138.305 14.176L138.521 12.064H140.585V22H138.353V19.408L138.593 19.984C138.529 20.144 138.385 20.352 138.161 20.608C137.953 20.848 137.665 21.096 137.297 21.352C136.945 21.608 136.537 21.824 136.073 22C135.609 22.16 135.089 22.24 134.513 22.24ZM135.113 20.392C135.673 20.392 136.177 20.288 136.625 20.08C137.073 19.872 137.441 19.584 137.729 19.216C138.033 18.832 138.241 18.376 138.353 17.848V15.904C138.225 15.424 138.001 15.008 137.681 14.656C137.361 14.288 136.977 14.008 136.529 13.816C136.081 13.608 135.585 13.504 135.041 13.504C134.449 13.504 133.905 13.648 133.409 13.936C132.913 14.224 132.513 14.624 132.209 15.136C131.921 15.648 131.777 16.248 131.777 16.936C131.777 17.576 131.929 18.16 132.233 18.688C132.537 19.216 132.945 19.632 133.457 19.936C133.969 20.24 134.521 20.392 135.113 20.392ZM145.264 22V14.056H143.56V12.064H145.264V7.864C145.264 6.424 145.584 5.32 146.224 4.552C146.88 3.784 147.84 3.4 149.104 3.4C149.44 3.4 149.808 3.448 150.208 3.544C150.624 3.64 150.984 3.8 151.288 4.024L150.352 5.632C150.208 5.488 150.048 5.392 149.872 5.344C149.696 5.28 149.52 5.248 149.344 5.248C148.752 5.248 148.296 5.448 147.976 5.848C147.656 6.248 147.496 6.928 147.496 7.888V12.064H150.64V14.056H147.496V22H145.264ZM157.611 22.24C156.475 22.24 155.499 22.016 154.683 21.568C153.867 21.104 153.235 20.48 152.787 19.696C152.355 18.896 152.139 17.984 152.139 16.96C152.139 15.984 152.387 15.096 152.883 14.296C153.379 13.496 154.043 12.856 154.875 12.376C155.707 11.896 156.635 11.656 157.659 11.656C158.971 11.656 160.059 12.04 160.923 12.808C161.787 13.576 162.371 14.632 162.675 15.976L154.491 18.856L153.963 17.536L160.683 15.088L160.203 15.4C160.011 14.872 159.691 14.416 159.243 14.032C158.795 13.632 158.211 13.432 157.491 13.432C156.883 13.432 156.339 13.584 155.859 13.888C155.379 14.176 155.003 14.576 154.731 15.088C154.459 15.6 154.323 16.184 154.323 16.84C154.323 17.528 154.467 18.136 154.755 18.664C155.043 19.176 155.435 19.584 155.931 19.888C156.443 20.176 157.019 20.32 157.659 20.32C158.091 20.32 158.507 20.24 158.907 20.08C159.323 19.92 159.707 19.712 160.059 19.456L161.091 21.112C160.595 21.448 160.035 21.72 159.411 21.928C158.803 22.136 158.203 22.24 157.611 22.24Z" fill="#2680D9"/>
<path d="M166.661 4.336H178.565L178.133 7.768H173.909L172.157 22H168.557L170.309 7.768H166.229L166.661 4.336ZM181.213 11.512L181.117 13.84C181.501 13.216 181.957 12.696 182.485 12.28C183.029 11.848 183.573 11.528 184.117 11.32C184.677 11.096 185.149 10.984 185.533 10.984L184.957 14.344C184.189 14.248 183.501 14.376 182.893 14.728C182.285 15.08 181.797 15.544 181.429 16.12C181.061 16.696 180.837 17.288 180.757 17.896L180.253 22H176.917L178.189 11.512H181.213ZM190.582 22.24C189.894 22.256 189.222 22.064 188.566 21.664C187.91 21.264 187.366 20.68 186.934 19.912C186.518 19.144 186.31 18.216 186.31 17.128C186.31 16.344 186.454 15.592 186.742 14.872C187.03 14.136 187.438 13.48 187.966 12.904C188.494 12.312 189.118 11.848 189.838 11.512C190.558 11.16 191.35 10.984 192.214 10.984C192.918 10.984 193.486 11.064 193.918 11.224C194.366 11.384 194.726 11.592 194.998 11.848C195.27 12.088 195.502 12.352 195.694 12.64L195.478 13.144L196.006 11.512H199.126L197.854 22H194.494L194.758 19.72L194.95 20.44C194.918 20.44 194.806 20.536 194.614 20.728C194.422 20.904 194.142 21.112 193.774 21.352C193.422 21.592 192.974 21.808 192.43 22C191.902 22.176 191.286 22.256 190.582 22.24ZM192.478 19.552C192.798 19.552 193.102 19.496 193.39 19.384C193.694 19.256 193.982 19.08 194.254 18.856C194.526 18.616 194.766 18.32 194.974 17.968L195.286 15.4C195.206 15.048 195.054 14.752 194.83 14.512C194.606 14.256 194.326 14.064 193.99 13.936C193.654 13.792 193.27 13.72 192.838 13.72C192.294 13.72 191.83 13.816 191.446 14.008C191.062 14.2 190.742 14.448 190.486 14.752C190.246 15.056 190.07 15.384 189.958 15.736C189.846 16.072 189.79 16.4 189.79 16.72C189.79 17.296 189.902 17.8 190.126 18.232C190.35 18.648 190.662 18.976 191.062 19.216C191.478 19.44 191.95 19.552 192.478 19.552ZM206.018 22.216L201.026 11.512H205.01L207.698 18.76L205.658 18.688L209.618 11.512H213.362L206.114 22.216H206.018ZM219.735 19.432C220.055 19.432 220.359 19.376 220.647 19.264C220.951 19.152 221.255 19.016 221.559 18.856L222.735 21.448C222.207 21.704 221.647 21.904 221.055 22.048C220.479 22.192 219.919 22.264 219.375 22.264C218.223 22.264 217.215 22.072 216.351 21.688C215.503 21.288 214.839 20.688 214.359 19.888C213.879 19.072 213.639 18.056 213.639 16.84C213.639 16.216 213.751 15.568 213.975 14.896C214.215 14.224 214.575 13.6 215.055 13.024C215.551 12.432 216.191 11.952 216.975 11.584C217.775 11.216 218.735 11.032 219.855 11.032C220.463 11.032 221.063 11.112 221.655 11.272C222.263 11.416 222.815 11.688 223.311 12.088C223.823 12.472 224.255 13.016 224.607 13.72C224.975 14.424 225.231 15.336 225.375 16.456L216.927 18.544L216.399 16.672L222.975 14.968L221.799 15.328C221.671 14.784 221.415 14.368 221.031 14.08C220.663 13.792 220.231 13.648 219.735 13.648C219.079 13.648 218.551 13.784 218.151 14.056C217.751 14.328 217.455 14.68 217.263 15.112C217.087 15.544 216.999 15.992 216.999 16.456C216.999 17.256 217.143 17.872 217.431 18.304C217.735 18.736 218.095 19.032 218.511 19.192C218.943 19.352 219.351 19.432 219.735 19.432ZM229.424 3.064H232.784L230.48 22H227.12L229.424 3.064Z" fill="#2680D9"/>
</g>
<defs>
<clipPath id="clip0_416_163">
<rect width="233" height="28" fill="white"/>
</clipPath>
</defs>
</svg>
