<svg width="69" height="38" viewBox="0 0 69 38" fill="none" xmlns="http://www.w3.org/2000/svg">
<g clip-path="url(#clip0_697_1307)">
<path d="M21.9447 3.744C21.3527 3.44 20.7047 3.176 20.0007 2.952C19.2967 2.728 18.6087 2.616 17.9367 2.616C17.0087 2.616 16.2647 2.832 15.7047 3.264C15.1607 3.696 14.8887 4.272 14.8887 4.992C14.8887 5.536 15.0647 6 15.4167 6.384C15.7687 6.752 16.2327 7.072 16.8087 7.344C17.3847 7.616 17.9847 7.872 18.6087 8.112C19.1527 8.32 19.6887 8.552 20.2167 8.808C20.7447 9.064 21.2167 9.384 21.6327 9.768C22.0647 10.152 22.4007 10.624 22.6407 11.184C22.8967 11.744 23.0247 12.44 23.0247 13.272C23.0247 14.184 22.7927 15.016 22.3287 15.768C21.8807 16.52 21.2327 17.112 20.3847 17.544C19.5367 17.976 18.5287 18.192 17.3607 18.192C16.5927 18.192 15.8567 18.104 15.1527 17.928C14.4647 17.752 13.8247 17.528 13.2327 17.256C12.6407 16.968 12.1127 16.672 11.6487 16.368L12.6807 14.544C13.0647 14.816 13.5047 15.08 14.0007 15.336C14.4967 15.576 15.0167 15.776 15.5607 15.936C16.1047 16.08 16.6327 16.152 17.1447 16.152C17.6887 16.152 18.2247 16.056 18.7527 15.864C19.2967 15.656 19.7447 15.344 20.0967 14.928C20.4487 14.512 20.6247 13.96 20.6247 13.272C20.6247 12.68 20.4647 12.192 20.1447 11.808C19.8407 11.408 19.4327 11.072 18.9207 10.8C18.4087 10.512 17.8647 10.256 17.2887 10.032C16.7447 9.824 16.1927 9.6 15.6327 9.36C15.0727 9.104 14.5527 8.8 14.0727 8.448C13.5927 8.08 13.2087 7.632 12.9207 7.104C12.6327 6.576 12.4887 5.936 12.4887 5.184C12.4887 4.272 12.7047 3.48 13.1367 2.808C13.5847 2.12 14.1927 1.584 14.9607 1.2C15.7287 0.799999 16.6087 0.583999 17.6007 0.551999C18.7207 0.551999 19.7047 0.687999 20.5527 0.959999C21.4167 1.232 22.1767 1.568 22.8327 1.968L21.9447 3.744ZM30.5134 18.24C29.5854 18.24 28.7374 18.04 27.9694 17.64C27.2174 17.24 26.6174 16.656 26.1694 15.888C25.7374 15.104 25.5214 14.152 25.5214 13.032C25.5214 11.928 25.7534 10.976 26.2174 10.176C26.6814 9.36 27.2974 8.736 28.0654 8.304C28.8494 7.872 29.7054 7.656 30.6334 7.656C31.5614 7.656 32.3454 7.872 32.9854 8.304C33.6254 8.72 34.1134 9.216 34.4494 9.792L34.3054 10.176L34.5214 8.064H36.5854V18H34.3534V15.408L34.5934 15.984C34.5294 16.144 34.3854 16.352 34.1614 16.608C33.9534 16.848 33.6654 17.096 33.2974 17.352C32.9454 17.608 32.5374 17.824 32.0734 18C31.6094 18.16 31.0894 18.24 30.5134 18.24ZM31.1134 16.392C31.6734 16.392 32.1774 16.288 32.6254 16.08C33.0734 15.872 33.4414 15.584 33.7294 15.216C34.0334 14.832 34.2414 14.376 34.3534 13.848V11.904C34.2254 11.424 34.0014 11.008 33.6814 10.656C33.3614 10.288 32.9774 10.008 32.5294 9.816C32.0814 9.608 31.5854 9.504 31.0414 9.504C30.4494 9.504 29.9054 9.648 29.4094 9.936C28.9134 10.224 28.5134 10.624 28.2094 11.136C27.9214 11.648 27.7774 12.248 27.7774 12.936C27.7774 13.576 27.9294 14.16 28.2334 14.688C28.5374 15.216 28.9454 15.632 29.4574 15.936C29.9694 16.24 30.5214 16.392 31.1134 16.392ZM41.2639 18V10.056H39.5599V8.064H41.2639V3.864C41.2639 2.424 41.5839 1.32 42.2239 0.551999C42.8799 -0.216001 43.8399 -0.600001 45.1039 -0.600001C45.4399 -0.600001 45.8079 -0.552001 46.2079 -0.456001C46.6239 -0.360001 46.9839 -0.2 47.2879 0.0239997L46.3519 1.632C46.2079 1.488 46.0479 1.392 45.8719 1.344C45.6959 1.28 45.5199 1.248 45.3439 1.248C44.7519 1.248 44.2959 1.448 43.9759 1.848C43.6559 2.248 43.4959 2.928 43.4959 3.888V8.064H46.6399V10.056H43.4959V18H41.2639ZM53.6106 18.24C52.4746 18.24 51.4986 18.016 50.6826 17.568C49.8666 17.104 49.2346 16.48 48.7866 15.696C48.3546 14.896 48.1386 13.984 48.1386 12.96C48.1386 11.984 48.3866 11.096 48.8826 10.296C49.3786 9.496 50.0426 8.856 50.8746 8.376C51.7066 7.896 52.6346 7.656 53.6586 7.656C54.9706 7.656 56.0586 8.04 56.9226 8.808C57.7866 9.576 58.3706 10.632 58.6746 11.976L50.4906 14.856L49.9626 13.536L56.6826 11.088L56.2026 11.4C56.0106 10.872 55.6906 10.416 55.2426 10.032C54.7946 9.632 54.2106 9.432 53.4906 9.432C52.8826 9.432 52.3386 9.584 51.8586 9.888C51.3786 10.176 51.0026 10.576 50.7306 11.088C50.4586 11.6 50.3226 12.184 50.3226 12.84C50.3226 13.528 50.4666 14.136 50.7546 14.664C51.0426 15.176 51.4346 15.584 51.9306 15.888C52.4426 16.176 53.0186 16.32 53.6586 16.32C54.0906 16.32 54.5066 16.24 54.9066 16.08C55.3226 15.92 55.7066 15.712 56.0586 15.456L57.0906 17.112C56.5946 17.448 56.0346 17.72 55.4106 17.928C54.8026 18.136 54.2026 18.24 53.6106 18.24Z" fill="#0F3357"/>
<path d="M2.66063 20.336H14.5646L14.1326 23.768H9.90863L8.15663 38H4.55663L6.30862 23.768H2.22863L2.66063 20.336ZM17.2125 27.512L17.1165 29.84C17.5005 29.216 17.9565 28.696 18.4845 28.28C19.0285 27.848 19.5725 27.528 20.1165 27.32C20.6765 27.096 21.1485 26.984 21.5325 26.984L20.9565 30.344C20.1885 30.248 19.5005 30.376 18.8925 30.728C18.2845 31.08 17.7965 31.544 17.4285 32.12C17.0605 32.696 16.8365 33.288 16.7565 33.896L16.2525 38H12.9165L14.1885 27.512H17.2125ZM26.5824 38.24C25.8944 38.256 25.2224 38.064 24.5664 37.664C23.9104 37.264 23.3664 36.68 22.9344 35.912C22.5184 35.144 22.3104 34.216 22.3104 33.128C22.3104 32.344 22.4544 31.592 22.7424 30.872C23.0304 30.136 23.4384 29.48 23.9664 28.904C24.4944 28.312 25.1184 27.848 25.8384 27.512C26.5584 27.16 27.3504 26.984 28.2144 26.984C28.9184 26.984 29.4864 27.064 29.9184 27.224C30.3664 27.384 30.7264 27.592 30.9984 27.848C31.2704 28.088 31.5024 28.352 31.6944 28.64L31.4784 29.144L32.0064 27.512H35.1264L33.8544 38H30.4944L30.7584 35.72L30.9504 36.44C30.9184 36.44 30.8064 36.536 30.6144 36.728C30.4224 36.904 30.1424 37.112 29.7744 37.352C29.4224 37.592 28.9744 37.808 28.4304 38C27.9024 38.176 27.2864 38.256 26.5824 38.24ZM28.4784 35.552C28.7984 35.552 29.1024 35.496 29.3904 35.384C29.6944 35.256 29.9824 35.08 30.2544 34.856C30.5264 34.616 30.7664 34.32 30.9744 33.968L31.2864 31.4C31.2064 31.048 31.0544 30.752 30.8304 30.512C30.6064 30.256 30.3264 30.064 29.9904 29.936C29.6544 29.792 29.2704 29.72 28.8384 29.72C28.2944 29.72 27.8304 29.816 27.4464 30.008C27.0624 30.2 26.7424 30.448 26.4864 30.752C26.2464 31.056 26.0704 31.384 25.9584 31.736C25.8464 32.072 25.7904 32.4 25.7904 32.72C25.7904 33.296 25.9024 33.8 26.1264 34.232C26.3504 34.648 26.6624 34.976 27.0624 35.216C27.4784 35.44 27.9504 35.552 28.4784 35.552ZM42.0184 38.216L37.0264 27.512H41.0104L43.6984 34.76L41.6584 34.688L45.6184 27.512H49.3624L42.1144 38.216H42.0184ZM55.7351 35.432C56.0551 35.432 56.3591 35.376 56.6471 35.264C56.9511 35.152 57.2551 35.016 57.5591 34.856L58.7351 37.448C58.2071 37.704 57.6471 37.904 57.0551 38.048C56.4791 38.192 55.9191 38.264 55.3751 38.264C54.2231 38.264 53.2151 38.072 52.3511 37.688C51.5031 37.288 50.8391 36.688 50.3591 35.888C49.8791 35.072 49.6391 34.056 49.6391 32.84C49.6391 32.216 49.7511 31.568 49.9751 30.896C50.2151 30.224 50.5751 29.6 51.0551 29.024C51.5511 28.432 52.1911 27.952 52.9751 27.584C53.7751 27.216 54.7351 27.032 55.8551 27.032C56.4631 27.032 57.0631 27.112 57.6551 27.272C58.2631 27.416 58.8151 27.688 59.3111 28.088C59.8231 28.472 60.2551 29.016 60.6071 29.72C60.9751 30.424 61.2311 31.336 61.3751 32.456L52.9271 34.544L52.3991 32.672L58.9751 30.968L57.7991 31.328C57.6711 30.784 57.4151 30.368 57.0311 30.08C56.6631 29.792 56.2311 29.648 55.7351 29.648C55.0791 29.648 54.5511 29.784 54.1511 30.056C53.7511 30.328 53.4551 30.68 53.2631 31.112C53.0871 31.544 52.9991 31.992 52.9991 32.456C52.9991 33.256 53.1431 33.872 53.4311 34.304C53.7351 34.736 54.0951 35.032 54.5111 35.192C54.9431 35.352 55.3511 35.432 55.7351 35.432ZM65.4236 19.064H68.7836L66.4796 38H63.1196L65.4236 19.064Z" fill="#0F3357"/>
</g>
<defs>
<clipPath id="clip0_697_1307">
<rect width="69" height="38" fill="white"/>
</clipPath>
</defs>
</svg>
