<svg width="69" height="38" viewBox="0 0 69 38" fill="none" xmlns="http://www.w3.org/2000/svg">
<g clip-path="url(#clip0_697_1307)">
<path d="M21.9447 4.244C21.3527 3.94 20.7047 3.676 20.0007 3.452C19.2967 3.228 18.6087 3.116 17.9367 3.116C17.0087 3.116 16.2647 3.332 15.7047 3.764C15.1607 4.196 14.8887 4.772 14.8887 5.492C14.8887 6.036 15.0647 6.5 15.4167 6.884C15.7687 7.252 16.2327 7.572 16.8087 7.844C17.3847 8.116 17.9847 8.372 18.6087 8.612C19.1527 8.82 19.6887 9.052 20.2167 9.308C20.7447 9.564 21.2167 9.884 21.6327 10.268C22.0647 10.652 22.4007 11.124 22.6407 11.684C22.8967 12.244 23.0247 12.94 23.0247 13.772C23.0247 14.684 22.7927 15.516 22.3287 16.268C21.8807 17.02 21.2327 17.612 20.3847 18.044C19.5367 18.476 18.5287 18.692 17.3607 18.692C16.5927 18.692 15.8567 18.604 15.1527 18.428C14.4647 18.252 13.8247 18.028 13.2327 17.756C12.6407 17.468 12.1127 17.172 11.6487 16.868L12.6807 15.044C13.0647 15.316 13.5047 15.58 14.0007 15.836C14.4967 16.076 15.0167 16.276 15.5607 16.436C16.1047 16.58 16.6327 16.652 17.1447 16.652C17.6887 16.652 18.2247 16.556 18.7527 16.364C19.2967 16.156 19.7447 15.844 20.0967 15.428C20.4487 15.012 20.6247 14.46 20.6247 13.772C20.6247 13.18 20.4647 12.692 20.1447 12.308C19.8407 11.908 19.4327 11.572 18.9207 11.3C18.4087 11.012 17.8647 10.756 17.2887 10.532C16.7447 10.324 16.1927 10.1 15.6327 9.86C15.0727 9.604 14.5527 9.3 14.0727 8.948C13.5927 8.58 13.2087 8.132 12.9207 7.604C12.6327 7.076 12.4887 6.436 12.4887 5.684C12.4887 4.772 12.7047 3.98 13.1367 3.308C13.5847 2.62 14.1927 2.084 14.9607 1.7C15.7287 1.3 16.6087 1.084 17.6007 1.052C18.7207 1.052 19.7047 1.188 20.5527 1.46C21.4167 1.732 22.1767 2.068 22.8327 2.468L21.9447 4.244ZM30.5134 18.74C29.5854 18.74 28.7374 18.54 27.9694 18.14C27.2174 17.74 26.6174 17.156 26.1694 16.388C25.7374 15.604 25.5214 14.652 25.5214 13.532C25.5214 12.428 25.7534 11.476 26.2174 10.676C26.6814 9.86 27.2974 9.236 28.0654 8.804C28.8494 8.372 29.7054 8.156 30.6334 8.156C31.5614 8.156 32.3454 8.372 32.9854 8.804C33.6254 9.22 34.1134 9.716 34.4494 10.292L34.3054 10.676L34.5214 8.564H36.5854V18.5H34.3534V15.908L34.5934 16.484C34.5294 16.644 34.3854 16.852 34.1614 17.108C33.9534 17.348 33.6654 17.596 33.2974 17.852C32.9454 18.108 32.5374 18.324 32.0734 18.5C31.6094 18.66 31.0894 18.74 30.5134 18.74ZM31.1134 16.892C31.6734 16.892 32.1774 16.788 32.6254 16.58C33.0734 16.372 33.4414 16.084 33.7294 15.716C34.0334 15.332 34.2414 14.876 34.3534 14.348V12.404C34.2254 11.924 34.0014 11.508 33.6814 11.156C33.3614 10.788 32.9774 10.508 32.5294 10.316C32.0814 10.108 31.5854 10.004 31.0414 10.004C30.4494 10.004 29.9054 10.148 29.4094 10.436C28.9134 10.724 28.5134 11.124 28.2094 11.636C27.9214 12.148 27.7774 12.748 27.7774 13.436C27.7774 14.076 27.9294 14.66 28.2334 15.188C28.5374 15.716 28.9454 16.132 29.4574 16.436C29.9694 16.74 30.5214 16.892 31.1134 16.892ZM41.2639 18.5V10.556H39.5599V8.564H41.2639V4.364C41.2639 2.924 41.5839 1.82 42.2239 1.052C42.8799 0.283999 43.8399 -0.100001 45.1039 -0.100001C45.4399 -0.100001 45.8079 -0.052001 46.2079 0.0439987C46.6239 0.139999 46.9839 0.3 47.2879 0.524L46.3519 2.132C46.2079 1.988 46.0479 1.892 45.8719 1.844C45.6959 1.78 45.5199 1.748 45.3439 1.748C44.7519 1.748 44.2959 1.948 43.9759 2.348C43.6559 2.748 43.4959 3.428 43.4959 4.388V8.564H46.6399V10.556H43.4959V18.5H41.2639ZM53.6106 18.74C52.4746 18.74 51.4986 18.516 50.6826 18.068C49.8666 17.604 49.2346 16.98 48.7866 16.196C48.3546 15.396 48.1386 14.484 48.1386 13.46C48.1386 12.484 48.3866 11.596 48.8826 10.796C49.3786 9.996 50.0426 9.356 50.8746 8.876C51.7066 8.396 52.6346 8.156 53.6586 8.156C54.9706 8.156 56.0586 8.54 56.9226 9.308C57.7866 10.076 58.3706 11.132 58.6746 12.476L50.4906 15.356L49.9626 14.036L56.6826 11.588L56.2026 11.9C56.0106 11.372 55.6906 10.916 55.2426 10.532C54.7946 10.132 54.2106 9.932 53.4906 9.932C52.8826 9.932 52.3386 10.084 51.8586 10.388C51.3786 10.676 51.0026 11.076 50.7306 11.588C50.4586 12.1 50.3226 12.684 50.3226 13.34C50.3226 14.028 50.4666 14.636 50.7546 15.164C51.0426 15.676 51.4346 16.084 51.9306 16.388C52.4426 16.676 53.0186 16.82 53.6586 16.82C54.0906 16.82 54.5066 16.74 54.9066 16.58C55.3226 16.42 55.7066 16.212 56.0586 15.956L57.0906 17.612C56.5946 17.948 56.0346 18.22 55.4106 18.428C54.8026 18.636 54.2026 18.74 53.6106 18.74Z" fill="#0F3357"/>
<path d="M2.66063 20.336H14.5646L14.1326 23.768H9.90863L8.15663 38H4.55663L6.30862 23.768H2.22863L2.66063 20.336ZM17.2125 27.512L17.1165 29.84C17.5005 29.216 17.9565 28.696 18.4845 28.28C19.0285 27.848 19.5725 27.528 20.1165 27.32C20.6765 27.096 21.1485 26.984 21.5325 26.984L20.9565 30.344C20.1885 30.248 19.5005 30.376 18.8925 30.728C18.2845 31.08 17.7965 31.544 17.4285 32.12C17.0605 32.696 16.8365 33.288 16.7565 33.896L16.2525 38H12.9165L14.1885 27.512H17.2125ZM26.5824 38.24C25.8944 38.256 25.2224 38.064 24.5664 37.664C23.9104 37.264 23.3664 36.68 22.9344 35.912C22.5184 35.144 22.3104 34.216 22.3104 33.128C22.3104 32.344 22.4544 31.592 22.7424 30.872C23.0304 30.136 23.4384 29.48 23.9664 28.904C24.4944 28.312 25.1184 27.848 25.8384 27.512C26.5584 27.16 27.3504 26.984 28.2144 26.984C28.9184 26.984 29.4864 27.064 29.9184 27.224C30.3664 27.384 30.7264 27.592 30.9984 27.848C31.2704 28.088 31.5024 28.352 31.6944 28.64L31.4784 29.144L32.0064 27.512H35.1264L33.8544 38H30.4944L30.7584 35.72L30.9504 36.44C30.9184 36.44 30.8064 36.536 30.6144 36.728C30.4224 36.904 30.1424 37.112 29.7744 37.352C29.4224 37.592 28.9744 37.808 28.4304 38C27.9024 38.176 27.2864 38.256 26.5824 38.24ZM28.4784 35.552C28.7984 35.552 29.1024 35.496 29.3904 35.384C29.6944 35.256 29.9824 35.08 30.2544 34.856C30.5264 34.616 30.7664 34.32 30.9744 33.968L31.2864 31.4C31.2064 31.048 31.0544 30.752 30.8304 30.512C30.6064 30.256 30.3264 30.064 29.9904 29.936C29.6544 29.792 29.2704 29.72 28.8384 29.72C28.2944 29.72 27.8304 29.816 27.4464 30.008C27.0624 30.2 26.7424 30.448 26.4864 30.752C26.2464 31.056 26.0704 31.384 25.9584 31.736C25.8464 32.072 25.7904 32.4 25.7904 32.72C25.7904 33.296 25.9024 33.8 26.1264 34.232C26.3504 34.648 26.6624 34.976 27.0624 35.216C27.4784 35.44 27.9504 35.552 28.4784 35.552ZM42.0184 38.216L37.0264 27.512H41.0104L43.6984 34.76L41.6584 34.688L45.6184 27.512H49.3624L42.1144 38.216H42.0184ZM55.7351 35.432C56.0551 35.432 56.3591 35.376 56.6471 35.264C56.9511 35.152 57.2551 35.016 57.5591 34.856L58.7351 37.448C58.2071 37.704 57.6471 37.904 57.0551 38.048C56.4791 38.192 55.9191 38.264 55.3751 38.264C54.2231 38.264 53.2151 38.072 52.3511 37.688C51.5031 37.288 50.8391 36.688 50.3591 35.888C49.8791 35.072 49.6391 34.056 49.6391 32.84C49.6391 32.216 49.7511 31.568 49.9751 30.896C50.2151 30.224 50.5751 29.6 51.0551 29.024C51.5511 28.432 52.1911 27.952 52.9751 27.584C53.7751 27.216 54.7351 27.032 55.8551 27.032C56.4631 27.032 57.0631 27.112 57.6551 27.272C58.2631 27.416 58.8151 27.688 59.3111 28.088C59.8231 28.472 60.2551 29.016 60.6071 29.72C60.9751 30.424 61.2311 31.336 61.3751 32.456L52.9271 34.544L52.3991 32.672L58.9751 30.968L57.7991 31.328C57.6711 30.784 57.4151 30.368 57.0311 30.08C56.6631 29.792 56.2311 29.648 55.7351 29.648C55.0791 29.648 54.5511 29.784 54.1511 30.056C53.7511 30.328 53.4551 30.68 53.2631 31.112C53.0871 31.544 52.9991 31.992 52.9991 32.456C52.9991 33.256 53.1431 33.872 53.4311 34.304C53.7351 34.736 54.0951 35.032 54.5111 35.192C54.9431 35.352 55.3511 35.432 55.7351 35.432ZM65.4236 19.064H68.7836L66.4796 38H63.1196L65.4236 19.064Z" fill="#0F3357"/>
</g>
<defs>
<clipPath id="clip0_697_1307">
<rect width="69" height="38" fill="white"/>
</clipPath>
</defs>
</svg>
